HIERARCHY
ROOT root
{
	OFFSET 0.000000 0.000000 0.000000
	CHANNELS 6 Xposition Yposition Zposition Zrotation Yrotation Xrotation
	JOINT lhip
	{
		OFFSET 0.058581 -0.082280 -0.017664
		CHANNELS 3 Zrotation Yrotation Xrotation
		JOINT lknee
		{
			OFFSET 0.043451 -0.386469 0.008037
			CHANNELS 3 Zrotation Yrotation Xrotation
			JOINT lankle
			{
				OFFSET -0.014790 -0.426874 -0.037428
				CHANNELS 3 Zrotation Yrotation Xrotation
				JOINT ltoe
				{
					OFFSET 0.041054 -0.060286 0.122042
					CHANNELS 3 Zrotation Yrotation Xrotation
					End Site
					{
						OFFSET 0.000000 0.000000 0.000000
					}
				}
			}
		}
	}
	JOINT rhip
	{
		OFFSET -0.060310 -0.090513 -0.013543
		CHANNELS 3 Zrotation Yrotation Xrotation
		JOINT rknee
		{
			OFFSET -0.043257 -0.383688 -0.004843
			CHANNELS 3 Zrotation Yrotation Xrotation
			JOINT rankle
			{
				OFFSET 0.019056 -0.420046 -0.034562
				CHANNELS 3 Zrotation Yrotation Xrotation
				JOINT rtoe
				{
					OFFSET -0.034840 -0.062106 0.130323
					CHANNELS 3 Zrotation Yrotation Xrotation
					End Site
					{
						OFFSET 0.000000 0.000000 0.000000
					}
				}
			}
		}
	}
	JOINT lowerback
	{
		OFFSET 0.004439 0.124404 -0.038385
		CHANNELS 3 Zrotation Yrotation Xrotation
		JOINT upperback
		{
			OFFSET 0.004488 0.137956 0.026820
			CHANNELS 3 Zrotation Yrotation Xrotation
			JOINT chest
			{
				OFFSET -0.002265 0.056032 0.002855
				CHANNELS 3 Zrotation Yrotation Xrotation
				JOINT lowerneck
				{
					OFFSET -0.013390 0.211636 -0.033468
					CHANNELS 3 Zrotation Yrotation Xrotation
					JOINT upperneck
					{
						OFFSET 0.010113 0.088937 0.050410
						CHANNELS 3 Zrotation Yrotation Xrotation
						End Site
						{
							OFFSET 0.000000 0.000000 0.000000
						}
					}
				}
				JOINT lclavicle
				{
					OFFSET 0.071702 0.114000 -0.018898
					CHANNELS 3 Zrotation Yrotation Xrotation
					JOINT lshoulder
					{
						OFFSET 0.122921 0.045205 -0.019046
						CHANNELS 3 Zrotation Yrotation Xrotation
						JOINT lelbow
						{
							OFFSET 0.255332 -0.015649 -0.022946
							CHANNELS 3 Zrotation Yrotation Xrotation
							JOINT lwrist
							{
								OFFSET 0.265709 0.012698 -0.007375
								CHANNELS 3 Zrotation Yrotation Xrotation
								End Site
								{
									OFFSET 0.000000 0.000000 0.000000
								}
							}
						}
					}
				}
				JOINT rclavicle
				{
					OFFSET -0.082954 0.112472 -0.023707
					CHANNELS 3 Zrotation Yrotation Xrotation
					JOINT rshoulder
					{
						OFFSET -0.113228 0.046853 -0.008472
						CHANNELS 3 Zrotation Yrotation Xrotation
						JOINT relbow
						{
							OFFSET -0.260127 -0.014369 -0.031269
							CHANNELS 3 Zrotation Yrotation Xrotation
							JOINT rwrist
							{
								OFFSET -0.269108 0.006794 -0.006027
								CHANNELS 3 Zrotation Yrotation Xrotation
								End Site
								{
									OFFSET 0.000000 0.000000 0.000000
								}
							}
						}
					}
				}
			}
		}
	}
}
MOTION
Frames: 6
Frame Time: 0.033333
1.112319 0.763266 0.988408 -86.645495 1.732529 87.039060 0.330226 -1.421924 5.478160 -2.406254 -16.540204 3.775058 7.748527 7.774535 -19.411339 0.000000 -0.000000 0.000000 2.327669 -3.354774 4.023944 3.689566 2.867595 5.805974 2.181238 -5.501680 -13.543291 0.000000 -0.000000 0.000000 -2.204308 2.485923 4.724790 1.221562 -2.557451 1.928953 2.080993 -1.612544 4.361864 2.967338 2.266328 -8.259042 2.891010 -1.670256 -4.048335 -26.245598 2.474998 1.747931 -60.764939 -5.649014 8.257719 9.335869 -21.634782 6.428577 -2.729726 -1.563937 -7.324760 25.072056 -1.813964 1.968177 60.667529 -1.024582 9.615640 -13.582600 17.359329 -3.207045 7.920143 -0.404793 -8.811411 
1.113480 0.763131 0.985830 -86.781016 2.193428 87.991037 0.922241 -1.688852 4.052779 -2.751604 -16.155427 4.343920 7.683923 7.864685 -19.400397 0.000000 -0.000000 0.000000 2.780639 -3.317940 2.625278 3.824228 3.252353 6.167181 1.893546 -5.697567 -13.433456 0.000000 -0.000000 0.000000 -1.341588 2.190829 3.929232 1.232997 -2.458909 2.074742 1.693329 -1.808879 4.588242 3.188486 2.647019 -9.273548 2.604281 -1.097344 -4.879409 -26.705308 3.057019 1.297467 -60.681566 -4.868112 7.730698 10.247028 -18.821031 6.547399 -2.529598 -1.523277 -6.861955 24.269207 -3.111279 1.501206 61.203233 -0.535782 9.617633 -13.171666 16.806400 -2.567261 7.070274 -0.108840 -8.326019 
1.112312 0.762754 0.985419 -86.736395 2.389254 87.793647 1.095679 -1.768779 4.340965 -2.752053 -16.221965 4.373033 7.670792 7.877754 -19.398348 0.000000 -0.000000 0.000000 3.000986 -2.669850 3.124881 3.832666 2.897572 5.849235 1.778593 -6.133183 -13.402107 0.000000 -0.000000 0.000000 -1.300835 1.973302 4.145306 1.324517 -2.501380 2.422855 1.841695 -1.735441 4.465908 3.288299 2.977627 -9.704772 2.498281 -0.776067 -5.335469 -26.606912 3.335216 1.746577 -60.977859 -4.191777 7.374788 10.909818 -16.882851 6.421579 -2.796043 -1.349753 -7.046985 24.271521 -2.805507 1.980767 61.245374 -1.303367 9.638476 -13.994582 16.137000 -2.772017 6.924654 -0.347195 -8.932171 
1.111299 0.762606 0.984819 -87.004625 2.561056 87.888880 1.303404 -1.665048 4.383730 -2.798057 -16.116070 4.244605 7.671913 7.945882 -19.354375 0.000000 -0.000000 0.000000 3.173123 -2.622155 3.197531 3.817287 3.004689 5.585761 1.684499 -6.076835 -13.220979 0.000000 -0.000000 0.000000 -1.218015 1.887401 3.996705 1.328570 -2.560969 2.589355 1.895332 -1.671531 4.416919 3.147769 3.766173 -9.114485 2.388497 0.275393 -5.866587 -26.459912 3.695083 2.287543 -61.032698 -3.211330 6.885691 11.207189 -15.073878 6.557589 -3.182882 -1.161612 -7.016066 23.996102 -3.145338 2.201320 61.436612 -1.177231 9.238247 -13.907049 15.773529 -2.994267 6.944506 -0.186127 -9.611927 
1.110592 0.762249 0.984929 -87.282303 2.574529 87.905267 1.244507 -1.504232 4.538262 -2.679093 -16.101456 4.017426 7.770351 8.038427 -19.173233 0.000000 -0.000000 0.000000 3.131946 -2.681820 3.318895 3.817641 3.304526 5.368488 1.688699 -5.930918 -13.106292 0.000000 -0.000000 0.000000 -1.256591 1.940964 3.922773 1.307657 -2.534830 2.673136 1.950857 -1.597476 4.429077 3.149377 4.108642 -9.022142 2.341581 0.718719 -6.156408 -26.368299 4.070505 2.440224 -61.018235 -2.768546 6.669138 11.102673 -14.403777 6.755060 -3.267480 -1.000063 -6.871498 23.901019 -3.333861 2.246814 61.483157 -1.242163 9.083009 -14.190381 15.119655 -2.955434 6.781350 -0.655583 -9.298055 
1.110192 0.761969 0.984628 -87.473409 2.598635 87.904662 1.267309 -1.363502 4.502950 -2.740536 -15.941325 4.097531 7.775510 8.037658 -19.223310 0.000000 -0.000000 0.000000 3.084674 -2.751877 3.385160 3.819192 3.341378 5.277796 1.706149 -5.768999 -13.064527 0.000000 -0.000000 0.000000 -1.317295 1.950982 4.068800 1.321335 -2.548440 2.635134 2.012302 -1.548391 4.342895 3.076353 4.541025 -8.716768 2.049926 1.314833 -6.376656 -26.350452 4.552954 2.642442 -61.010733 -2.220796 6.441124 11.124686 -14.127690 7.004131 -3.575198 -1.154382 -7.010395 23.868446 -3.530403 2.346407 61.484922 -0.973318 8.917492 -14.198066 14.782335 -3.102917 6.896543 -0.498091 -9.458960 
